# xmcd
#
# Track frame offsets:
#	183
#	12233
#	25973
#	36693
#	52823
#	63733
#	75788
#	88863
#	100228
#	112725
#
# Disc length: 1669
#
# Revision: 1
# Processed by: cddbd v1.5.1PL0 Copyright (c) Steve Scherf et al.
# Submitted via: ExactAudioCopy v0.90b4
# Normalized: r0:DSETVAR1,TDELIM( - )
#
DISCID=7406830a
DTITLE=Various Artist - Blues! Blues! Blues! - 32 Giants
DYEAR=1990
DGENRE=Blues
TTITLE0=Lightning Hopkins - Lonesome Dog
TTITLE1=Ted Taylor - She's a Winner
TTITLE2=Lou Rawis - Walking for Miles
TTITLE3=John Lee Hooker - Blues for Christmas
TTITLE4=Jerry Butler - Lost Without You
TTITLE5=Joe Tex - I Just Can't Take it Back
TTITLE6=Sam Cooke - Deep River
TTITLE7=Jimmy Reed - Good Lover
TTITLE8=Ray Charles - See What You Have Done
TTITLE9=Little Richard - I'm Trampin'
EXTD=
EXTT0=
EXTT1=
EXTT2=
EXTT3=
EXTT4=
EXTT5=
EXTT6=
EXTT7=
EXTT8=
EXTT9=
PLAYORDER=
